<?xml version="1.0" encoding="UTF-8" standalone="no"?>
<!DOCTYPE svg PUBLIC "-//W3C//DTD SVG 1.1//EN" "http://www.w3.org/Graphics/SVG/1.1/DTD/svg11.dtd">
<svg width="100%" height="100%" viewBox="0 0 488 221" version="1.1" xmlns="http://www.w3.org/2000/svg" xmlns:xlink="http://www.w3.org/1999/xlink" xml:space="preserve" xmlns:serif="http://www.serif.com/" style="fill-rule:evenodd;clip-rule:evenodd;stroke-linecap:round;stroke-linejoin:round;stroke-miterlimit:1.5;">
    <g transform="matrix(1,0,0,1,-2.3,-49.9741)">
        <g transform="matrix(0.292635,0,0,0.520861,-126.259,34.4105)">
            <path d="M832.981,71.337C832.981,65.08 823.939,60 812.802,60L460.178,60C449.042,60 440,65.08 440,71.337L440,368.663C440,374.92 449.042,380 460.178,380L812.802,380C823.939,380 832.981,374.92 832.981,368.663L832.981,71.337Z" style="fill:none;stroke:rgb(160,160,160);stroke-width:0.95px;stroke-dasharray:4.73,4.73,4.73,4.73;"/>
        </g>
        <g id="architecture-patterns-icons-connector.svg" transform="matrix(0.0864955,-0.00029243,0.00029243,0.0864955,84.9251,96.7823)">
            <g transform="matrix(1,0,0,1,-256,-256)">
                <g id="icon-base">
                    <path d="M76.889,500.094C39.961,500.094 9.981,470.114 9.981,433.186L9.981,250.343L10.025,250.343C12.531,117.254 121.351,9.981 255.027,9.981C390.272,9.981 500.073,119.787 500.073,255.038C500.073,390.288 390.272,500.094 255.027,500.094L76.889,500.094ZM256,54.628C366.609,54.628 456.41,144.428 456.41,255.038C456.41,365.647 366.609,455.448 256,455.448C145.391,455.448 55.59,365.647 55.59,255.038C55.59,144.428 145.391,54.628 256,54.628Z" style="fill:rgb(79,79,79);"/>
                    <g transform="matrix(1.01941,0,0,1.01941,-4.9511,-4.95131)">
                        <path d="M84.362,489.814C48.984,489.814 20.261,461.091 20.261,425.713L20.261,250.54L20.303,250.54C22.705,123.034 126.959,20.261 255.027,20.261C384.598,20.261 489.793,125.461 489.793,255.038C489.793,384.614 384.598,489.814 255.027,489.814L84.362,489.814ZM256,52.357C368.393,52.357 459.643,143.607 459.643,256C459.643,368.393 368.393,459.643 256,459.643C143.607,459.643 52.357,368.393 52.357,256C52.357,143.607 143.607,52.357 256,52.357Z"/>
                    </g>
                    <g transform="matrix(1.0306,0,0,1.0306,-7.83398,-7.83398)">
                        <circle cx="256" cy="256" r="197.526"/>
                    </g>
                </g>
                <g id="connector_v1">
                    <g transform="matrix(1.02961,0,0,1.02961,-7.5789,-7.5504)">
                        <circle cx="256" cy="255.038" r="101.795" style="fill:white;"/>
                    </g>
                    <g transform="matrix(1,0,0,1,0.973069,0)">
                        <circle cx="255.027" cy="256" r="74.342"/>
                    </g>
                    <g transform="matrix(0.300406,0,0,2.24046,155.754,-223.559)">
                        <rect x="280.441" y="256" width="99.865" height="33.475" style="fill:white;"/>
                    </g>
                    <g transform="matrix(0.300406,0,0,1.48364,155.754,-304.811)">
                        <rect x="280.441" y="256" width="99.865" height="33.475" style="fill:white;"/>
                    </g>
                    <g transform="matrix(1,0,0,1,-10,-10)">
                        <path d="M250,237.5C250,233.361 246.639,230 242.5,230L227.5,230C223.361,230 220,233.361 220,237.5L220,272.5C220,276.639 223.361,280 227.5,280L242.5,280C246.639,280 250,276.639 250,272.5L250,237.5Z" style="fill:white;"/>
                    </g>
                    <g transform="matrix(1,0,0,1,50,-10)">
                        <path d="M250,237.5C250,233.361 246.639,230 242.5,230L227.5,230C223.361,230 220,233.361 220,237.5L220,272.5C220,276.639 223.361,280 227.5,280L242.5,280C246.639,280 250,276.639 250,272.5L250,237.5Z" style="fill:white;"/>
                    </g>
                </g>
            </g>
        </g>
        <g id="architecture-patterns-icons-app.svg" transform="matrix(0.195313,0,0,0.195312,57.1429,177.324)">
            <g opacity="0.7">
                <g transform="matrix(1,0,0,1,-256,-256)">
                    <g id="icon-base1" serif:id="icon-base">
                        <path d="M76.889,500.094C39.961,500.094 9.981,470.114 9.981,433.186L9.981,250.343L10.025,250.343C12.531,117.254 121.351,9.981 255.027,9.981C390.272,9.981 500.073,119.787 500.073,255.038C500.073,390.288 390.272,500.094 255.027,500.094L76.889,500.094ZM256,54.628C366.609,54.628 456.41,144.428 456.41,255.038C456.41,365.647 366.609,455.448 256,455.448C145.391,455.448 55.59,365.647 55.59,255.038C55.59,144.428 145.391,54.628 256,54.628Z" style="fill:rgb(79,79,79);"/>
                        <g transform="matrix(1.01941,0,0,1.01941,-4.9511,-4.95131)">
                            <path d="M84.362,489.814C48.984,489.814 20.261,461.091 20.261,425.713L20.261,250.54L20.303,250.54C22.705,123.034 126.959,20.261 255.027,20.261C384.598,20.261 489.793,125.461 489.793,255.038C489.793,384.614 384.598,489.814 255.027,489.814L84.362,489.814ZM256,52.357C368.393,52.357 459.643,143.607 459.643,256C459.643,368.393 368.393,459.643 256,459.643C143.607,459.643 52.357,368.393 52.357,256C52.357,143.607 143.607,52.357 256,52.357Z"/>
                        </g>
                        <g transform="matrix(1.0306,0,0,1.0306,-7.83398,-7.83398)">
                            <circle cx="256" cy="256" r="197.526"/>
                        </g>
                    </g>
                    <g id="application_v1">
                        <g transform="matrix(1,0,0,1,0,29)">
                            <path d="M181.658,256C181.658,297.03 214.97,330.342 256,330.342C297.03,330.342 330.342,297.03 330.342,256L360.804,256C360.283,313.408 313.522,359.847 256,359.847C198.478,359.847 151.717,313.408 151.196,256L181.658,256Z" style="fill:white;"/>
                        </g>
                        <g transform="matrix(1.47883,0,0,1.47883,-107.736,-69.4301)">
                            <circle cx="225" cy="145" r="40" style="fill:rgb(75,75,75);"/>
                        </g>
                        <circle cx="225" cy="145" r="40" style="fill:rgb(35,35,35);"/>
                        <g transform="matrix(1,0,0,4.75,15,-487.5)">
                            <path d="M225,133.158C225,131.415 218.279,130 210,130C201.721,130 195,131.415 195,133.158L195,156.842C195,158.585 201.721,160 210,160C218.279,160 225,158.585 225,156.842L225,133.158Z" style="fill:white;"/>
                        </g>
                        <g transform="matrix(1,0,0,3.3817,55,-225.121)">
                            <path d="M225,134.436C225,131.988 218.279,130 210,130C201.721,130 195,131.988 195,134.436L195,155.564C195,158.012 201.721,160 210,160C218.279,160 225,158.012 225,155.564L225,134.436Z" style="fill:white;"/>
                        </g>
                        <g transform="matrix(1,0,0,2.36183,95,-79.3293)">
                            <path d="M225,136.351C225,132.846 218.279,130 210,130C201.721,130 195,132.846 195,136.351L195,153.649C195,157.154 201.721,160 210,160C218.279,160 225,157.154 225,153.649L225,136.351Z" style="fill:white;"/>
                        </g>
                        <g transform="matrix(1.01307,0,0,1.08333,-46.2689,109.167)">
                            <path d="M225,144.027C225,136.285 218.279,130 210,130C201.721,130 195,136.285 195,144.027L195,145.973C195,153.715 201.721,160 210,160C218.279,160 225,153.715 225,145.973L225,144.027Z" style="fill:white;"/>
                        </g>
                        <g transform="matrix(0.989184,0,0,1,-6.69332,69.2602)">
                            <path d="M340.712,215.74L371.516,215.74L371.516,211.142C371.516,202.641 364.614,195.74 356.114,195.74C347.613,195.74 340.712,202.641 340.712,211.142L340.712,215.74Z" style="fill:white;"/>
                        </g>
                        <g transform="matrix(0.989315,0,0,1.02704,1.61559,-7.19828)">
                            <rect x="151.196" y="266.25" width="30.804" height="18.75" style="fill:white;"/>
                        </g>
                    </g>
                </g>
            </g>
        </g>
        <g transform="matrix(1,0,0,1,291.911,23.841)">
            <text x="136.514px" y="220px" style="font-family:'Lexend-Medium', 'Lexend';font-size:10px;fill:rgb(139,139,139);">SOR</text>
            <text x="100.689px" y="230px" style="font-family:'Lexend-Medium', 'Lexend';font-size:10px;fill:rgb(139,139,139);">(Sy<tspan x="116.299px " y="230px ">s</tspan>tem o<tspan x="148.699px " y="230px ">f</tspan> R<tspan x="162.179px " y="230px ">e</tspan>cor<tspan x="183.349px " y="230px ">d</tspan>)</text>
        </g>
        <g transform="matrix(1,0,0,1,2.70764,-162.912)">
            <text x="122.009px" y="220px" style="font-family:'Lexend-SemiBold', 'Lexend';font-size:10px;fill:rgb(139,139,139);">Connector</text>
        </g>
        <g transform="matrix(0.234488,-0.000729674,0.000729674,0.234488,-127.96,42.0641)">
            <g transform="matrix(1,0,0,1.47232,613.245,-83.9105)">
                <text x="115.051px" y="220px" style="font-family:'AppleSDGothicNeo-Bold', 'Apple SD Gothic Neo';font-weight:700;font-size:48px;fill:rgb(139,139,139);">&lt;/&gt;</text>
            </g>
            <g transform="matrix(1.42857,0,0,1,-257.143,20)">
                <path d="M740,150C740,144.481 736.863,140 733,140L607,140C603.137,140 600,144.481 600,150C600,155.519 603.137,160 607,160L733,160C736.863,160 740,155.519 740,150Z" style="fill:rgb(156,156,156);"/>
            </g>
            <g transform="matrix(0.857143,0,0,1,85.7143,50)">
                <path d="M740,150C740,144.481 734.772,140 728.333,140L611.667,140C605.228,140 600,144.481 600,150C600,155.519 605.228,160 611.667,160L728.333,160C734.772,160 740,155.519 740,150Z" style="fill:rgb(156,156,156);"/>
            </g>
            <g transform="matrix(0.857143,0,0,1,85.7143,80)">
                <path d="M740,150C740,144.481 734.772,140 728.333,140L611.667,140C605.228,140 600,144.481 600,150C600,155.519 605.228,160 611.667,160L728.333,160C734.772,160 740,155.519 740,150Z" style="fill:rgb(156,156,156);"/>
            </g>
            <g transform="matrix(1.42857,0,0,1,-257.143,110)">
                <path d="M740,150C740,144.481 736.863,140 733,140L607,140C603.137,140 600,144.481 600,150C600,155.519 603.137,160 607,160L733,160C736.863,160 740,155.519 740,150Z" style="fill:rgb(156,156,156);"/>
            </g>
            <g transform="matrix(1.42857,0,0,1,-257.143,140)">
                <path d="M740,150C740,144.481 736.863,140 733,140L607,140C603.137,140 600,144.481 600,150C600,155.519 603.137,160 607,160L733,160C736.863,160 740,155.519 740,150Z" style="fill:rgb(156,156,156);"/>
            </g>
            <g transform="matrix(1.42857,0,0,1,-257.143,170)">
                <path d="M740,150C740,144.481 736.863,140 733,140L607,140C603.137,140 600,144.481 600,150C600,155.519 603.137,160 607,160L733,160C736.863,160 740,155.519 740,150Z" style="fill:rgb(156,156,156);"/>
            </g>
        </g>
        <g transform="matrix(1,0,0,1,-87.0595,30)">
            <text x="119.364px" y="220px" style="font-family:'Lexend-Medium', 'Lexend';font-size:10px;fill:rgb(139,139,139);">Application</text>
            <text x="113.749px" y="230px" style="font-family:'Lexend-Medium', 'Lexend';font-size:10px;fill:rgb(139,139,139);">pr<tspan x="123.869px " y="230px ">o</tspan>gr<tspan x="140.319px " y="230px ">a</tspan>mming</text>
            <text x="128.754px" y="240px" style="font-family:'Lexend-Medium', 'Lexend';font-size:10px;fill:rgb(139,139,139);">context</text>
        </g>
        <g id="architecture-patterns-icons.svg" transform="matrix(0.195312,0,0,0.195313,440,177.324)">
            <g transform="matrix(1,0,0,1,-256,-256)">
                <g id="icon-base2" serif:id="icon-base">
                    <path d="M76.889,500.094C39.961,500.094 9.981,470.114 9.981,433.186L9.981,250.343L10.025,250.343C12.531,117.254 121.351,9.981 255.027,9.981C390.272,9.981 500.073,119.787 500.073,255.038C500.073,390.288 390.272,500.094 255.027,500.094L76.889,500.094ZM256,54.628C366.609,54.628 456.41,144.428 456.41,255.038C456.41,365.647 366.609,455.448 256,455.448C145.391,455.448 55.59,365.647 55.59,255.038C55.59,144.428 145.391,54.628 256,54.628Z" style="fill:rgb(79,79,79);"/>
                    <g transform="matrix(1.01941,0,0,1.01941,-4.9511,-4.95131)">
                        <path d="M84.362,489.814C48.984,489.814 20.261,461.091 20.261,425.713L20.261,250.54L20.303,250.54C22.705,123.034 126.959,20.261 255.027,20.261C384.598,20.261 489.793,125.461 489.793,255.038C489.793,384.614 384.598,489.814 255.027,489.814L84.362,489.814ZM256,52.357C368.393,52.357 459.643,143.607 459.643,256C459.643,368.393 368.393,459.643 256,459.643C143.607,459.643 52.357,368.393 52.357,256C52.357,143.607 143.607,52.357 256,52.357Z"/>
                    </g>
                    <g transform="matrix(1.0306,0,0,1.0306,-7.83398,-7.83398)">
                        <circle cx="256" cy="256" r="197.526"/>
                    </g>
                </g>
                <g id="sor_v1">
                    <g transform="matrix(1,0,0,1,-24.7665,-25)">
                        <path d="M235.171,109.191C304.384,109.191 360.576,165.383 360.576,234.595C360.576,303.808 304.384,360 235.171,360C165.958,360 109.766,303.808 109.766,234.595C109.766,165.383 165.958,109.191 235.171,109.191ZM235.171,140C287.697,140 330.342,182.645 330.342,235.171C330.342,287.697 287.697,330.342 235.171,330.342C182.645,330.342 140,287.697 140,235.171C140,182.645 182.645,140 235.171,140Z" style="fill:white;"/>
                    </g>
                    <g transform="matrix(1,0,0,1,-25,-25.342)">
                        <path d="M150.342,235.171C150.342,281.989 188.353,320 235.171,320L235.171,325C185.593,325 145.342,284.749 145.342,235.171L150.342,235.171ZM160.342,235.171C160.342,276.47 193.872,310 235.171,310L235.171,315C191.112,315 155.342,279.23 155.342,235.171L160.342,235.171ZM170.342,235.171C170.342,270.951 199.391,300 235.171,300L235.171,305C196.631,305 165.342,273.711 165.342,235.171L170.342,235.171ZM180.343,235.525C180.534,265.623 205.028,290 235.171,290L235.171,295C202.151,295 175.342,268.192 175.342,235.171L180.342,235.171L180.343,235.525ZM190.342,235.171C190.342,259.913 210.429,280 235.171,280L235.171,285C207.67,285 185.342,262.672 185.342,235.171L190.342,235.171ZM235.171,145.342C284.749,145.342 325,185.593 325,235.171L320,235.171C320,188.353 281.989,150.342 235.171,150.342L235.171,145.342ZM235.171,155.342C279.23,155.342 315,191.112 315,235.171L310,235.171C310,193.872 276.47,160.342 235.171,160.342L235.171,155.342ZM235.171,165.342C273.711,165.342 305,196.631 305,235.171L300,235.171C300,199.391 270.951,170.342 235.171,170.342L235.171,165.342ZM235.171,175.342C268.192,175.342 295,202.151 295,235.171L290,235.171C290,204.91 265.432,180.342 235.171,180.342L235.171,175.342ZM235.171,185.342C262.672,185.342 285,207.67 285,235.171L280,235.171C280,210.429 259.913,190.342 235.171,190.342L235.171,185.342Z" style="fill:rgb(119,119,119);"/>
                    </g>
                    <g transform="matrix(0.333983,0,0,0.333983,124.996,124.329)">
                        <circle cx="255.027" cy="256" r="74.342" style="fill:white;"/>
                    </g>
                    <g transform="matrix(0.333983,0,0,0.333983,264.654,304.671)">
                        <circle cx="255.027" cy="256" r="74.342" style="fill:white;"/>
                    </g>
                    <g transform="matrix(0.474152,0,0,0.964138,117.451,22.531)">
                        <rect x="280" y="210" width="105" height="119.277"/>
                    </g>
                    <g transform="matrix(-1.08076e-16,1.06869,-0.863257,1.47012e-16,493.079,-64.5753)">
                        <path d="M365,252.5C365,242.841 358.666,235 350.864,235L299.136,235C291.334,235 285,242.841 285,252.5C285,262.159 291.334,270 299.136,270L350.864,270C358.666,270 365,262.159 365,252.5Z" style="fill:white;"/>
                    </g>
                    <g transform="matrix(1.26565,1.34051,-0.627691,0.592635,62.5161,-230.307)">
                        <path d="M365,252.5C365,242.841 361.328,235 356.806,235L293.194,235C288.672,235 285,242.841 285,252.5C285,262.159 288.672,270 293.194,270L356.806,270C361.328,270 365,262.159 365,252.5Z" style="fill:white;"/>
                    </g>
                    <g transform="matrix(0.102622,0,0,0.102622,323.658,363.9)">
                        <circle cx="255.027" cy="256" r="74.342"/>
                    </g>
                </g>
            </g>
        </g>
        <g transform="matrix(1,0,0,1,0,59)">
            <g transform="matrix(1,-0,-0,1,2.3,-9.02594)">
                <path d="M105.236,58.733C104.455,57.953 103.188,57.953 102.407,58.733C101.627,59.514 101.627,60.781 102.407,61.561C103.188,62.342 104.455,62.342 105.236,61.561C106.016,60.781 106.016,59.514 105.236,58.733Z" style="fill:none;stroke:rgb(156,156,156);stroke-width:2px;stroke-linejoin:miter;stroke-miterlimit:10;"/>
                <path d="M392.993,99.49C393.773,100.271 393.773,101.538 392.993,102.319C392.212,103.099 390.945,103.099 390.164,102.319C389.384,101.538 389.384,100.271 390.164,99.49C390.945,98.71 392.212,98.71 392.993,99.49Z" style="fill:none;stroke:rgb(156,156,156);stroke-width:2px;stroke-linejoin:miter;stroke-miterlimit:10;"/>
                <path d="M105.236,61.561C110.142,66.468 118.8,75.126 122.236,78.561C123.173,79.499 124.445,80.026 125.771,80.026C148.227,80.026 346.173,80.026 368.629,80.026C369.955,80.026 371.227,80.553 372.164,81.49C375.747,85.073 385.034,94.36 390.164,99.49" style="fill:none;stroke:rgb(156,156,156);stroke-width:2px;"/>
            </g>
        </g>
        <g transform="matrix(1,0,0,1,0,52)">
            <g transform="matrix(1,-0,-0,1,2.3,-2.02594)">
                <path d="M109.236,52.733C108.455,51.953 107.188,51.953 106.407,52.733C105.627,53.514 105.627,54.781 106.407,55.561C107.188,56.342 108.455,56.342 109.236,55.561C110.016,54.781 110.016,53.514 109.236,52.733Z" style="fill:none;stroke:rgb(156,156,156);stroke-width:2px;stroke-linejoin:miter;stroke-miterlimit:10;"/>
                <path d="M396.993,93.49C397.773,94.271 397.773,95.538 396.993,96.319C396.212,97.099 394.945,97.099 394.164,96.319C393.384,95.538 393.384,94.271 394.164,93.49C394.945,92.71 396.212,92.71 396.993,93.49Z" style="fill:none;stroke:rgb(156,156,156);stroke-width:2px;stroke-linejoin:miter;stroke-miterlimit:10;"/>
                <path d="M109.236,55.561C113.913,60.239 121.95,68.276 125.236,71.561C126.173,72.499 127.445,73.026 128.771,73.026C151.227,73.026 349.173,73.026 371.629,73.026C372.955,73.026 374.227,73.553 375.164,74.49C378.891,78.217 388.814,88.14 394.164,93.49" style="fill:none;stroke:rgb(156,156,156);stroke-width:2px;"/>
            </g>
        </g>
        <g transform="matrix(1,0,0,1,0,66)">
            <g transform="matrix(1,-0,-0,1,2.3,-16.0259)">
                <path d="M101.943,64.026C100.772,62.855 98.871,62.855 97.7,64.026C96.529,65.197 96.529,67.098 97.7,68.269C98.871,69.439 100.772,69.439 101.943,68.269C103.113,67.098 103.113,65.197 101.943,64.026ZM100.528,65.44C100.919,65.83 100.919,66.464 100.528,66.854C100.138,67.245 99.504,67.245 99.114,66.854C98.724,66.464 98.724,65.83 99.114,65.44C99.504,65.05 100.138,65.05 100.528,65.44Z" style="fill:rgb(156,156,156);"/>
                <path d="M390.7,105.783C389.529,104.613 387.628,104.613 386.457,105.783C385.287,106.954 385.287,108.855 386.457,110.026C387.628,111.197 389.529,111.197 390.7,110.026C391.871,108.855 391.871,106.954 390.7,105.783ZM389.286,107.198C389.676,107.588 389.676,108.221 389.286,108.612C388.896,109.002 388.262,109.002 387.872,108.612C387.481,108.221 387.481,107.588 387.872,107.198C388.262,106.807 388.896,106.807 389.286,107.198Z" style="fill:rgb(156,156,156);"/>
                <path d="M100.528,68.269C105.659,73.399 114.946,82.686 118.528,86.269C119.654,87.394 121.18,88.026 122.771,88.026L365.629,88.026C366.69,88.026 367.707,88.447 368.457,89.197C368.457,89.198 386.457,107.198 386.457,107.198C386.848,107.588 387.481,107.588 387.872,107.198C388.262,106.807 388.262,106.174 387.872,105.783C382.741,100.653 373.454,91.366 369.872,87.783C368.746,86.658 367.22,86.026 365.629,86.026L122.771,86.026C121.71,86.026 120.693,85.605 119.943,84.854C119.943,84.854 101.943,66.854 101.943,66.854C101.552,66.464 100.919,66.464 100.528,66.854C100.138,67.245 100.138,67.878 100.528,68.269Z" style="fill:rgb(156,156,156);"/>
            </g>
        </g>
        <g transform="matrix(0.947808,-0.318841,0.318841,0.947808,-16.1188,39.4693)">
            <path d="M100,75L125,62.939" style="fill:none;stroke:rgb(190,188,188);stroke-width:0.8px;"/>
        </g>
    </g>
</svg>
