<?xml version="1.0" encoding="UTF-8" standalone="no"?>
<!DOCTYPE svg PUBLIC "-//W3C//DTD SVG 1.1//EN" "http://www.w3.org/Graphics/SVG/1.1/DTD/svg11.dtd">
<svg width="100%" height="100%" viewBox="0 0 512 512" version="1.1" xmlns="http://www.w3.org/2000/svg" xmlns:xlink="http://www.w3.org/1999/xlink" xml:space="preserve" xmlns:serif="http://www.serif.com/" style="fill-rule:evenodd;clip-rule:evenodd;stroke-linejoin:round;stroke-miterlimit:2;">
    <g id="icon-base">
        <path d="M76.889,500.094C39.961,500.094 9.981,470.114 9.981,433.186L9.981,250.343L10.025,250.343C12.531,117.254 121.351,9.981 255.027,9.981C390.272,9.981 500.073,119.787 500.073,255.038C500.073,390.288 390.272,500.094 255.027,500.094L76.889,500.094ZM256,54.628C366.609,54.628 456.41,144.428 456.41,255.038C456.41,365.647 366.609,455.448 256,455.448C145.391,455.448 55.59,365.647 55.59,255.038C55.59,144.428 145.391,54.628 256,54.628Z" style="fill:rgb(79,79,79);"/>
        <g transform="matrix(1.01941,0,0,1.01941,-4.9511,-4.95131)">
            <path d="M84.362,489.814C48.984,489.814 20.261,461.091 20.261,425.713L20.261,250.54L20.303,250.54C22.705,123.034 126.959,20.261 255.027,20.261C384.598,20.261 489.793,125.461 489.793,255.038C489.793,384.614 384.598,489.814 255.027,489.814L84.362,489.814ZM256,52.357C368.393,52.357 459.643,143.607 459.643,256C459.643,368.393 368.393,459.643 256,459.643C143.607,459.643 52.357,368.393 52.357,256C52.357,143.607 143.607,52.357 256,52.357Z"/>
        </g>
        <g transform="matrix(1.0306,0,0,1.0306,-7.83398,-7.83398)">
            <circle cx="256" cy="256" r="197.526"/>
        </g>
    </g>
    <g id="application_v1">
        <g transform="matrix(1,0,0,1,0,29)">
            <path d="M181.658,256C181.658,297.03 214.97,330.342 256,330.342C297.03,330.342 330.342,297.03 330.342,256L360.804,256C360.283,313.408 313.522,359.847 256,359.847C198.478,359.847 151.717,313.408 151.196,256L181.658,256Z" style="fill:white;"/>
        </g>
        <g transform="matrix(1.47883,0,0,1.47883,-107.736,-69.4301)">
            <circle cx="225" cy="145" r="40" style="fill:rgb(75,75,75);"/>
        </g>
        <circle cx="225" cy="145" r="40" style="fill:rgb(35,35,35);"/>
        <g transform="matrix(1,0,0,4.75,15,-487.5)">
            <path d="M225,133.158C225,131.415 218.279,130 210,130C201.721,130 195,131.415 195,133.158L195,156.842C195,158.585 201.721,160 210,160C218.279,160 225,158.585 225,156.842L225,133.158Z" style="fill:white;"/>
        </g>
        <g transform="matrix(1,0,0,3.3817,55,-225.121)">
            <path d="M225,134.436C225,131.988 218.279,130 210,130C201.721,130 195,131.988 195,134.436L195,155.564C195,158.012 201.721,160 210,160C218.279,160 225,158.012 225,155.564L225,134.436Z" style="fill:white;"/>
        </g>
        <g transform="matrix(1,0,0,2.36183,95,-79.3293)">
            <path d="M225,136.351C225,132.846 218.279,130 210,130C201.721,130 195,132.846 195,136.351L195,153.649C195,157.154 201.721,160 210,160C218.279,160 225,157.154 225,153.649L225,136.351Z" style="fill:white;"/>
        </g>
        <g transform="matrix(1.01307,0,0,1.08333,-46.2689,109.167)">
            <path d="M225,144.027C225,136.285 218.279,130 210,130C201.721,130 195,136.285 195,144.027L195,145.973C195,153.715 201.721,160 210,160C218.279,160 225,153.715 225,145.973L225,144.027Z" style="fill:white;"/>
        </g>
        <g transform="matrix(0.989184,0,0,1,-6.69332,69.2602)">
            <path d="M340.712,215.74L371.516,215.74L371.516,211.142C371.516,202.641 364.614,195.74 356.114,195.74C347.613,195.74 340.712,202.641 340.712,211.142L340.712,215.74Z" style="fill:white;"/>
        </g>
        <g transform="matrix(0.989315,0,0,1.02704,1.61559,-7.19828)">
            <rect x="151.196" y="266.25" width="30.804" height="18.75" style="fill:white;"/>
        </g>
    </g>
</svg>
