<?xml version="1.0" encoding="UTF-8" standalone="no"?>
<!DOCTYPE svg PUBLIC "-//W3C//DTD SVG 1.1//EN" "http://www.w3.org/Graphics/SVG/1.1/DTD/svg11.dtd">
<svg width="100%" height="100%" viewBox="0 0 512 512" version="1.1" xmlns="http://www.w3.org/2000/svg" xmlns:xlink="http://www.w3.org/1999/xlink" xml:space="preserve" xmlns:serif="http://www.serif.com/" style="fill-rule:evenodd;clip-rule:evenodd;stroke-linejoin:round;stroke-miterlimit:2;">
    <g id="icon-base">
        <path d="M76.889,500.094C39.961,500.094 9.981,470.114 9.981,433.186L9.981,250.343L10.025,250.343C12.531,117.254 121.351,9.981 255.027,9.981C390.272,9.981 500.073,119.787 500.073,255.038C500.073,390.288 390.272,500.094 255.027,500.094L76.889,500.094ZM256,54.628C366.609,54.628 456.41,144.428 456.41,255.038C456.41,365.647 366.609,455.448 256,455.448C145.391,455.448 55.59,365.647 55.59,255.038C55.59,144.428 145.391,54.628 256,54.628Z" style="fill:rgb(79,79,79);"/>
        <g transform="matrix(1.01941,0,0,1.01941,-4.9511,-4.95131)">
            <path d="M84.362,489.814C48.984,489.814 20.261,461.091 20.261,425.713L20.261,250.54L20.303,250.54C22.705,123.034 126.959,20.261 255.027,20.261C384.598,20.261 489.793,125.461 489.793,255.038C489.793,384.614 384.598,489.814 255.027,489.814L84.362,489.814ZM256,52.357C368.393,52.357 459.643,143.607 459.643,256C459.643,368.393 368.393,459.643 256,459.643C143.607,459.643 52.357,368.393 52.357,256C52.357,143.607 143.607,52.357 256,52.357Z"/>
        </g>
        <g transform="matrix(1.0306,0,0,1.0306,-7.83398,-7.83398)">
            <circle cx="256" cy="256" r="197.526"/>
        </g>
    </g>
    <g id="proxy_v1">
        <g transform="matrix(1.02961,0,0,1.02961,-7.5789,-7.5504)">
            <circle cx="256" cy="255.038" r="101.795" style="fill:white;"/>
        </g>
        <g transform="matrix(1,0,0,1,0.973069,0)">
            <circle cx="255.027" cy="256" r="74.342"/>
        </g>
        <g transform="matrix(7.79321e-17,1.27273,-0.794676,4.86598e-17,618.403,-243.636)">
            <path d="M407.5,249.665L435,300L380,300L407.5,249.665Z" style="fill:white;"/>
        </g>
        <g transform="matrix(-7.79321e-17,-1.27273,0.794676,-4.86598e-17,-108.403,753.469)">
            <path d="M407.5,249.665L435,300L380,300L407.5,249.665Z" style="fill:white;"/>
        </g>
        <g transform="matrix(1.05007,0,0,0.886178,-14.3473,33.1384)">
            <rect x="280.441" y="256" width="99.865" height="33.475" style="fill:white;"/>
        </g>
        <g transform="matrix(1.05007,0,0,0.886178,-169.482,-6.86161)">
            <rect x="280.441" y="256" width="99.865" height="33.475" style="fill:white;"/>
        </g>
    </g>
</svg>
