<?xml version="1.0" encoding="UTF-8" standalone="no"?>
<!DOCTYPE svg PUBLIC "-//W3C//DTD SVG 1.1//EN" "http://www.w3.org/Graphics/SVG/1.1/DTD/svg11.dtd">
<svg width="100%" height="100%" viewBox="0 0 512 512" version="1.1" xmlns="http://www.w3.org/2000/svg" xmlns:xlink="http://www.w3.org/1999/xlink" xml:space="preserve" xmlns:serif="http://www.serif.com/" style="fill-rule:evenodd;clip-rule:evenodd;stroke-linejoin:round;stroke-miterlimit:2;">
    <g id="icon-base">
        <path d="M76.889,500.094C39.961,500.094 9.981,470.114 9.981,433.186L9.981,250.343L10.025,250.343C12.531,117.254 121.351,9.981 255.027,9.981C390.272,9.981 500.073,119.787 500.073,255.038C500.073,390.288 390.272,500.094 255.027,500.094L76.889,500.094ZM256,54.628C366.609,54.628 456.41,144.428 456.41,255.038C456.41,365.647 366.609,455.448 256,455.448C145.391,455.448 55.59,365.647 55.59,255.038C55.59,144.428 145.391,54.628 256,54.628Z" style="fill:rgb(79,79,79);"/>
        <g transform="matrix(1.01941,0,0,1.01941,-4.9511,-4.95131)">
            <path d="M84.362,489.814C48.984,489.814 20.261,461.091 20.261,425.713L20.261,250.54L20.303,250.54C22.705,123.034 126.959,20.261 255.027,20.261C384.598,20.261 489.793,125.461 489.793,255.038C489.793,384.614 384.598,489.814 255.027,489.814L84.362,489.814ZM256,52.357C368.393,52.357 459.643,143.607 459.643,256C459.643,368.393 368.393,459.643 256,459.643C143.607,459.643 52.357,368.393 52.357,256C52.357,143.607 143.607,52.357 256,52.357Z"/>
        </g>
        <g transform="matrix(1.0306,0,0,1.0306,-7.83398,-7.83398)">
            <circle cx="256" cy="256" r="197.526"/>
        </g>
    </g>
    <g id="service-endpoint_v1">
        <g transform="matrix(1.02961,0,0,1.02961,-88.3879,-12.397)">
            <circle cx="256" cy="255.038" r="101.795" style="fill:white;"/>
        </g>
        <g transform="matrix(1,0,0,1,-79.836,-4.8466)">
            <circle cx="255.027" cy="256" r="74.342"/>
        </g>
        <g transform="matrix(0.834303,0.551307,-0.48515,0.734186,162.772,-47.9719)">
            <rect x="230" y="220" width="70" height="50"/>
        </g>
        <g transform="matrix(0.836493,-0.547977,0.48222,0.736114,-73.8146,186.448)">
            <rect x="230" y="220" width="70" height="50"/>
        </g>
        <g transform="matrix(17.432,0,0,1.06038,-2613.93,-9.7928)">
            <rect x="160" y="230" width="15.191" height="30" style="fill:white;"/>
        </g>
        <g transform="matrix(2.21653,0,0,2.21653,-173.315,-265.363)">
            <circle cx="157.595" cy="232.595" r="17.595" style="fill:white;"/>
        </g>
        <g transform="matrix(0.853409,0,0,0.852492,118.285,97.2143)">
            <circle cx="157.595" cy="232.595" r="17.595" style="fill:white;"/>
        </g>
        <g transform="matrix(0.878634,0,0,0.87769,113.071,-0.203421)">
            <circle cx="157.595" cy="232.595" r="17.595" style="fill:white;"/>
        </g>
    </g>
</svg>
