<?xml version="1.0" encoding="UTF-8" standalone="no"?>
<!DOCTYPE svg PUBLIC "-//W3C//DTD SVG 1.1//EN" "http://www.w3.org/Graphics/SVG/1.1/DTD/svg11.dtd">
<svg width="100%" height="100%" viewBox="0 0 512 512" version="1.1" xmlns="http://www.w3.org/2000/svg" xmlns:xlink="http://www.w3.org/1999/xlink" xml:space="preserve" xmlns:serif="http://www.serif.com/" style="fill-rule:evenodd;clip-rule:evenodd;stroke-linejoin:round;stroke-miterlimit:2;">
    <g id="icon-base">
        <path d="M76.889,500.094C39.961,500.094 9.981,470.114 9.981,433.186L9.981,250.343L10.025,250.343C12.531,117.254 121.351,9.981 255.027,9.981C390.272,9.981 500.073,119.787 500.073,255.038C500.073,390.288 390.272,500.094 255.027,500.094L76.889,500.094ZM256,54.628C366.609,54.628 456.41,144.428 456.41,255.038C456.41,365.647 366.609,455.448 256,455.448C145.391,455.448 55.59,365.647 55.59,255.038C55.59,144.428 145.391,54.628 256,54.628Z" style="fill:rgb(79,79,79);"/>
        <g transform="matrix(1.01941,0,0,1.01941,-4.9511,-4.95131)">
            <path d="M84.362,489.814C48.984,489.814 20.261,461.091 20.261,425.713L20.261,250.54L20.303,250.54C22.705,123.034 126.959,20.261 255.027,20.261C384.598,20.261 489.793,125.461 489.793,255.038C489.793,384.614 384.598,489.814 255.027,489.814L84.362,489.814ZM256,52.357C368.393,52.357 459.643,143.607 459.643,256C459.643,368.393 368.393,459.643 256,459.643C143.607,459.643 52.357,368.393 52.357,256C52.357,143.607 143.607,52.357 256,52.357Z"/>
        </g>
        <g transform="matrix(1.0306,0,0,1.0306,-7.83398,-7.83398)">
            <circle cx="256" cy="256" r="197.526"/>
        </g>
    </g>
    <g id="sor_v1">
        <g transform="matrix(1,0,0,1,-24.7665,-25)">
            <path d="M235.171,109.191C304.384,109.191 360.576,165.383 360.576,234.595C360.576,303.808 304.384,360 235.171,360C165.958,360 109.766,303.808 109.766,234.595C109.766,165.383 165.958,109.191 235.171,109.191ZM235.171,140C287.697,140 330.342,182.645 330.342,235.171C330.342,287.697 287.697,330.342 235.171,330.342C182.645,330.342 140,287.697 140,235.171C140,182.645 182.645,140 235.171,140Z" style="fill:white;"/>
        </g>
        <g transform="matrix(1,0,0,1,-25,-25.342)">
            <path d="M150.342,235.171C150.342,281.989 188.353,320 235.171,320L235.171,325C185.593,325 145.342,284.749 145.342,235.171L150.342,235.171ZM160.342,235.171C160.342,276.47 193.872,310 235.171,310L235.171,315C191.112,315 155.342,279.23 155.342,235.171L160.342,235.171ZM170.342,235.171C170.342,270.951 199.391,300 235.171,300L235.171,305C196.631,305 165.342,273.711 165.342,235.171L170.342,235.171ZM180.343,235.525C180.534,265.623 205.028,290 235.171,290L235.171,295C202.151,295 175.342,268.192 175.342,235.171L180.342,235.171L180.343,235.525ZM190.342,235.171C190.342,259.913 210.429,280 235.171,280L235.171,285C207.67,285 185.342,262.672 185.342,235.171L190.342,235.171ZM235.171,145.342C284.749,145.342 325,185.593 325,235.171L320,235.171C320,188.353 281.989,150.342 235.171,150.342L235.171,145.342ZM235.171,155.342C279.23,155.342 315,191.112 315,235.171L310,235.171C310,193.872 276.47,160.342 235.171,160.342L235.171,155.342ZM235.171,165.342C273.711,165.342 305,196.631 305,235.171L300,235.171C300,199.391 270.951,170.342 235.171,170.342L235.171,165.342ZM235.171,175.342C268.192,175.342 295,202.151 295,235.171L290,235.171C290,204.91 265.432,180.342 235.171,180.342L235.171,175.342ZM235.171,185.342C262.672,185.342 285,207.67 285,235.171L280,235.171C280,210.429 259.913,190.342 235.171,190.342L235.171,185.342Z" style="fill:rgb(119,119,119);"/>
        </g>
        <g transform="matrix(0.333983,0,0,0.333983,124.996,124.329)">
            <circle cx="255.027" cy="256" r="74.342" style="fill:white;"/>
        </g>
        <g transform="matrix(0.333983,0,0,0.333983,264.654,304.671)">
            <circle cx="255.027" cy="256" r="74.342" style="fill:white;"/>
        </g>
        <g transform="matrix(0.474152,0,0,0.964138,117.451,22.531)">
            <rect x="280" y="210" width="105" height="119.277"/>
        </g>
        <g transform="matrix(-1.08076e-16,1.06869,-0.863257,1.47012e-16,493.079,-64.5753)">
            <path d="M365,252.5C365,242.841 358.666,235 350.864,235L299.136,235C291.334,235 285,242.841 285,252.5C285,262.159 291.334,270 299.136,270L350.864,270C358.666,270 365,262.159 365,252.5Z" style="fill:white;"/>
        </g>
        <g transform="matrix(1.26565,1.34051,-0.627691,0.592635,62.5161,-230.307)">
            <path d="M365,252.5C365,242.841 361.328,235 356.806,235L293.194,235C288.672,235 285,242.841 285,252.5C285,262.159 288.672,270 293.194,270L356.806,270C361.328,270 365,262.159 365,252.5Z" style="fill:white;"/>
        </g>
        <g transform="matrix(0.102622,0,0,0.102622,323.658,363.9)">
            <circle cx="255.027" cy="256" r="74.342"/>
        </g>
    </g>
</svg>
