<?xml version="1.0" encoding="UTF-8" standalone="no"?>
<!DOCTYPE svg PUBLIC "-//W3C//DTD SVG 1.1//EN" "http://www.w3.org/Graphics/SVG/1.1/DTD/svg11.dtd">
<svg width="100%" height="100%" viewBox="0 0 610 380" version="1.1" xmlns="http://www.w3.org/2000/svg" xmlns:xlink="http://www.w3.org/1999/xlink" xml:space="preserve" xmlns:serif="http://www.serif.com/" style="fill-rule:evenodd;clip-rule:evenodd;stroke-linecap:round;stroke-linejoin:round;stroke-miterlimit:1.5;">
    <g id="application.svg" transform="matrix(0.117188,0,0,0.117188,50.4219,64)">
        <g transform="matrix(1,0,0,1,-256,-256)">
            <g id="icon-base">
                <path d="M76.889,500.094C39.961,500.094 9.981,470.114 9.981,433.186L9.981,250.343L10.025,250.343C12.531,117.254 121.351,9.981 255.027,9.981C390.272,9.981 500.073,119.787 500.073,255.038C500.073,390.288 390.272,500.094 255.027,500.094L76.889,500.094ZM256,54.628C366.609,54.628 456.41,144.428 456.41,255.038C456.41,365.647 366.609,455.448 256,455.448C145.391,455.448 55.59,365.647 55.59,255.038C55.59,144.428 145.391,54.628 256,54.628Z" style="fill:rgb(79,79,79);"/>
                <g transform="matrix(1.01941,0,0,1.01941,-4.9511,-4.95131)">
                    <path d="M84.362,489.814C48.984,489.814 20.261,461.091 20.261,425.713L20.261,250.54L20.303,250.54C22.705,123.034 126.959,20.261 255.027,20.261C384.598,20.261 489.793,125.461 489.793,255.038C489.793,384.614 384.598,489.814 255.027,489.814L84.362,489.814ZM256,52.357C368.393,52.357 459.643,143.607 459.643,256C459.643,368.393 368.393,459.643 256,459.643C143.607,459.643 52.357,368.393 52.357,256C52.357,143.607 143.607,52.357 256,52.357Z"/>
                </g>
                <g transform="matrix(1.0306,0,0,1.0306,-7.83398,-7.83398)">
                    <circle cx="256" cy="256" r="197.526"/>
                </g>
            </g>
            <g id="application_v1">
                <g transform="matrix(1,0,0,1,0,29)">
                    <path d="M181.658,256C181.658,297.03 214.97,330.342 256,330.342C297.03,330.342 330.342,297.03 330.342,256L360.804,256C360.283,313.408 313.522,359.847 256,359.847C198.478,359.847 151.717,313.408 151.196,256L181.658,256Z" style="fill:white;"/>
                </g>
                <g transform="matrix(1.47883,0,0,1.47883,-107.736,-69.4301)">
                    <circle cx="225" cy="145" r="40" style="fill:rgb(75,75,75);"/>
                </g>
                <circle cx="225" cy="145" r="40" style="fill:rgb(35,35,35);"/>
                <g transform="matrix(1,0,0,4.75,15,-487.5)">
                    <path d="M225,133.158C225,131.415 218.279,130 210,130C201.721,130 195,131.415 195,133.158L195,156.842C195,158.585 201.721,160 210,160C218.279,160 225,158.585 225,156.842L225,133.158Z" style="fill:white;"/>
                </g>
                <g transform="matrix(1,0,0,3.3817,55,-225.121)">
                    <path d="M225,134.436C225,131.988 218.279,130 210,130C201.721,130 195,131.988 195,134.436L195,155.564C195,158.012 201.721,160 210,160C218.279,160 225,158.012 225,155.564L225,134.436Z" style="fill:white;"/>
                </g>
                <g transform="matrix(1,0,0,2.36183,95,-79.3293)">
                    <path d="M225,136.351C225,132.846 218.279,130 210,130C201.721,130 195,132.846 195,136.351L195,153.649C195,157.154 201.721,160 210,160C218.279,160 225,157.154 225,153.649L225,136.351Z" style="fill:white;"/>
                </g>
                <g transform="matrix(1.01307,0,0,1.08333,-46.2689,109.167)">
                    <path d="M225,144.027C225,136.285 218.279,130 210,130C201.721,130 195,136.285 195,144.027L195,145.973C195,153.715 201.721,160 210,160C218.279,160 225,153.715 225,145.973L225,144.027Z" style="fill:white;"/>
                </g>
                <g transform="matrix(0.989184,0,0,1,-6.69332,69.2602)">
                    <path d="M340.712,215.74L371.516,215.74L371.516,211.142C371.516,202.641 364.614,195.74 356.114,195.74C347.613,195.74 340.712,202.641 340.712,211.142L340.712,215.74Z" style="fill:white;"/>
                </g>
                <g transform="matrix(0.989315,0,0,1.02704,1.61559,-7.19828)">
                    <rect x="151.196" y="266.25" width="30.804" height="18.75" style="fill:white;"/>
                </g>
            </g>
        </g>
    </g>
    <g id="proxy.svg" transform="matrix(0.117188,0,0,0.117188,220.422,64)">
        <g transform="matrix(1,0,0,1,-256,-256)">
            <g id="icon-base1" serif:id="icon-base">
                <path d="M76.889,500.094C39.961,500.094 9.981,470.114 9.981,433.186L9.981,250.343L10.025,250.343C12.531,117.254 121.351,9.981 255.027,9.981C390.272,9.981 500.073,119.787 500.073,255.038C500.073,390.288 390.272,500.094 255.027,500.094L76.889,500.094ZM256,54.628C366.609,54.628 456.41,144.428 456.41,255.038C456.41,365.647 366.609,455.448 256,455.448C145.391,455.448 55.59,365.647 55.59,255.038C55.59,144.428 145.391,54.628 256,54.628Z" style="fill:rgb(79,79,79);"/>
                <g transform="matrix(1.01941,0,0,1.01941,-4.9511,-4.95131)">
                    <path d="M84.362,489.814C48.984,489.814 20.261,461.091 20.261,425.713L20.261,250.54L20.303,250.54C22.705,123.034 126.959,20.261 255.027,20.261C384.598,20.261 489.793,125.461 489.793,255.038C489.793,384.614 384.598,489.814 255.027,489.814L84.362,489.814ZM256,52.357C368.393,52.357 459.643,143.607 459.643,256C459.643,368.393 368.393,459.643 256,459.643C143.607,459.643 52.357,368.393 52.357,256C52.357,143.607 143.607,52.357 256,52.357Z"/>
                </g>
                <g transform="matrix(1.0306,0,0,1.0306,-7.83398,-7.83398)">
                    <circle cx="256" cy="256" r="197.526"/>
                </g>
            </g>
            <g id="proxy_v1">
                <g transform="matrix(1.02961,0,0,1.02961,-7.5789,-7.5504)">
                    <circle cx="256" cy="255.038" r="101.795" style="fill:white;"/>
                </g>
                <g transform="matrix(1,0,0,1,0.973069,0)">
                    <circle cx="255.027" cy="256" r="74.342"/>
                </g>
                <g transform="matrix(7.79321e-17,1.27273,-0.794676,4.86598e-17,618.403,-243.636)">
                    <path d="M407.5,249.665L435,300L380,300L407.5,249.665Z" style="fill:white;"/>
                </g>
                <g transform="matrix(-7.79321e-17,-1.27273,0.794676,-4.86598e-17,-108.403,753.469)">
                    <path d="M407.5,249.665L435,300L380,300L407.5,249.665Z" style="fill:white;"/>
                </g>
                <g transform="matrix(1.05007,0,0,0.886178,-14.3473,33.1384)">
                    <rect x="280.441" y="256" width="99.865" height="33.475" style="fill:white;"/>
                </g>
                <g transform="matrix(1.05007,0,0,0.886178,-169.482,-6.86161)">
                    <rect x="280.441" y="256" width="99.865" height="33.475" style="fill:white;"/>
                </g>
            </g>
        </g>
    </g>
    <g id="service-endpoint.svg" transform="matrix(0.117188,0,0,0.117188,380.422,64)">
        <g transform="matrix(1,0,0,1,-256,-256)">
            <g id="icon-base2" serif:id="icon-base">
                <path d="M76.889,500.094C39.961,500.094 9.981,470.114 9.981,433.186L9.981,250.343L10.025,250.343C12.531,117.254 121.351,9.981 255.027,9.981C390.272,9.981 500.073,119.787 500.073,255.038C500.073,390.288 390.272,500.094 255.027,500.094L76.889,500.094ZM256,54.628C366.609,54.628 456.41,144.428 456.41,255.038C456.41,365.647 366.609,455.448 256,455.448C145.391,455.448 55.59,365.647 55.59,255.038C55.59,144.428 145.391,54.628 256,54.628Z" style="fill:rgb(79,79,79);"/>
                <g transform="matrix(1.01941,0,0,1.01941,-4.9511,-4.95131)">
                    <path d="M84.362,489.814C48.984,489.814 20.261,461.091 20.261,425.713L20.261,250.54L20.303,250.54C22.705,123.034 126.959,20.261 255.027,20.261C384.598,20.261 489.793,125.461 489.793,255.038C489.793,384.614 384.598,489.814 255.027,489.814L84.362,489.814ZM256,52.357C368.393,52.357 459.643,143.607 459.643,256C459.643,368.393 368.393,459.643 256,459.643C143.607,459.643 52.357,368.393 52.357,256C52.357,143.607 143.607,52.357 256,52.357Z"/>
                </g>
                <g transform="matrix(1.0306,0,0,1.0306,-7.83398,-7.83398)">
                    <circle cx="256" cy="256" r="197.526"/>
                </g>
            </g>
            <g id="service-endpoint_v1">
                <g transform="matrix(1.02961,0,0,1.02961,-88.3879,-12.397)">
                    <circle cx="256" cy="255.038" r="101.795" style="fill:white;"/>
                </g>
                <g transform="matrix(1,0,0,1,-79.836,-4.8466)">
                    <circle cx="255.027" cy="256" r="74.342"/>
                </g>
                <g transform="matrix(0.834303,0.551307,-0.48515,0.734186,162.772,-47.9719)">
                    <rect x="230" y="220" width="70" height="50"/>
                </g>
                <g transform="matrix(0.836493,-0.547977,0.48222,0.736114,-73.8146,186.448)">
                    <rect x="230" y="220" width="70" height="50"/>
                </g>
                <g transform="matrix(17.432,0,0,1.06038,-2613.93,-9.7928)">
                    <rect x="160" y="230" width="15.191" height="30" style="fill:white;"/>
                </g>
                <g transform="matrix(2.21653,0,0,2.21653,-173.315,-265.363)">
                    <circle cx="157.595" cy="232.595" r="17.595" style="fill:white;"/>
                </g>
                <g transform="matrix(0.853409,0,0,0.852492,118.285,97.2143)">
                    <circle cx="157.595" cy="232.595" r="17.595" style="fill:white;"/>
                </g>
                <g transform="matrix(0.878634,0,0,0.87769,113.071,-0.203421)">
                    <circle cx="157.595" cy="232.595" r="17.595" style="fill:white;"/>
                </g>
            </g>
        </g>
    </g>
    <g id="service-endpoint.svg1" serif:id="service-endpoint.svg" transform="matrix(0.117188,0,0,0.117188,470.422,64)">
        <g transform="matrix(1,0,0,1,-256,-256)">
            <g id="icon-base3" serif:id="icon-base">
                <path d="M76.889,500.094C39.961,500.094 9.981,470.114 9.981,433.186L9.981,250.343L10.025,250.343C12.531,117.254 121.351,9.981 255.027,9.981C390.272,9.981 500.073,119.787 500.073,255.038C500.073,390.288 390.272,500.094 255.027,500.094L76.889,500.094ZM256,54.628C366.609,54.628 456.41,144.428 456.41,255.038C456.41,365.647 366.609,455.448 256,455.448C145.391,455.448 55.59,365.647 55.59,255.038C55.59,144.428 145.391,54.628 256,54.628Z" style="fill:rgb(79,79,79);"/>
                <g transform="matrix(1.01941,0,0,1.01941,-4.9511,-4.95131)">
                    <path d="M84.362,489.814C48.984,489.814 20.261,461.091 20.261,425.713L20.261,250.54L20.303,250.54C22.705,123.034 126.959,20.261 255.027,20.261C384.598,20.261 489.793,125.461 489.793,255.038C489.793,384.614 384.598,489.814 255.027,489.814L84.362,489.814ZM256,52.357C368.393,52.357 459.643,143.607 459.643,256C459.643,368.393 368.393,459.643 256,459.643C143.607,459.643 52.357,368.393 52.357,256C52.357,143.607 143.607,52.357 256,52.357Z"/>
                </g>
                <g transform="matrix(1.0306,0,0,1.0306,-7.83398,-7.83398)">
                    <circle cx="256" cy="256" r="197.526"/>
                </g>
            </g>
            <g id="service-endpoint_v11" serif:id="service-endpoint_v1">
                <g transform="matrix(1.02961,0,0,1.02961,-88.3879,-12.397)">
                    <circle cx="256" cy="255.038" r="101.795" style="fill:white;"/>
                </g>
                <g transform="matrix(1,0,0,1,-79.836,-4.8466)">
                    <circle cx="255.027" cy="256" r="74.342"/>
                </g>
                <g transform="matrix(0.834303,0.551307,-0.48515,0.734186,162.772,-47.9719)">
                    <rect x="230" y="220" width="70" height="50"/>
                </g>
                <g transform="matrix(0.836493,-0.547977,0.48222,0.736114,-73.8146,186.448)">
                    <rect x="230" y="220" width="70" height="50"/>
                </g>
                <g transform="matrix(17.432,0,0,1.06038,-2613.93,-9.7928)">
                    <rect x="160" y="230" width="15.191" height="30" style="fill:white;"/>
                </g>
                <g transform="matrix(2.21653,0,0,2.21653,-173.315,-265.363)">
                    <circle cx="157.595" cy="232.595" r="17.595" style="fill:white;"/>
                </g>
                <g transform="matrix(0.853409,0,0,0.852492,118.285,97.2143)">
                    <circle cx="157.595" cy="232.595" r="17.595" style="fill:white;"/>
                </g>
                <g transform="matrix(0.878634,0,0,0.87769,113.071,-0.203421)">
                    <circle cx="157.595" cy="232.595" r="17.595" style="fill:white;"/>
                </g>
            </g>
        </g>
    </g>
    <g id="service-endpoint.svg2" serif:id="service-endpoint.svg" transform="matrix(0.117188,0,0,0.117188,560.422,64)">
        <g transform="matrix(1,0,0,1,-256,-256)">
            <g id="icon-base4" serif:id="icon-base">
                <path d="M76.889,500.094C39.961,500.094 9.981,470.114 9.981,433.186L9.981,250.343L10.025,250.343C12.531,117.254 121.351,9.981 255.027,9.981C390.272,9.981 500.073,119.787 500.073,255.038C500.073,390.288 390.272,500.094 255.027,500.094L76.889,500.094ZM256,54.628C366.609,54.628 456.41,144.428 456.41,255.038C456.41,365.647 366.609,455.448 256,455.448C145.391,455.448 55.59,365.647 55.59,255.038C55.59,144.428 145.391,54.628 256,54.628Z" style="fill:rgb(79,79,79);"/>
                <g transform="matrix(1.01941,0,0,1.01941,-4.9511,-4.95131)">
                    <path d="M84.362,489.814C48.984,489.814 20.261,461.091 20.261,425.713L20.261,250.54L20.303,250.54C22.705,123.034 126.959,20.261 255.027,20.261C384.598,20.261 489.793,125.461 489.793,255.038C489.793,384.614 384.598,489.814 255.027,489.814L84.362,489.814ZM256,52.357C368.393,52.357 459.643,143.607 459.643,256C459.643,368.393 368.393,459.643 256,459.643C143.607,459.643 52.357,368.393 52.357,256C52.357,143.607 143.607,52.357 256,52.357Z"/>
                </g>
                <g transform="matrix(1.0306,0,0,1.0306,-7.83398,-7.83398)">
                    <circle cx="256" cy="256" r="197.526"/>
                </g>
            </g>
            <g id="service-endpoint_v12" serif:id="service-endpoint_v1">
                <g transform="matrix(1.02961,0,0,1.02961,-88.3879,-12.397)">
                    <circle cx="256" cy="255.038" r="101.795" style="fill:white;"/>
                </g>
                <g transform="matrix(1,0,0,1,-79.836,-4.8466)">
                    <circle cx="255.027" cy="256" r="74.342"/>
                </g>
                <g transform="matrix(0.834303,0.551307,-0.48515,0.734186,162.772,-47.9719)">
                    <rect x="230" y="220" width="70" height="50"/>
                </g>
                <g transform="matrix(0.836493,-0.547977,0.48222,0.736114,-73.8146,186.448)">
                    <rect x="230" y="220" width="70" height="50"/>
                </g>
                <g transform="matrix(17.432,0,0,1.06038,-2613.93,-9.7928)">
                    <rect x="160" y="230" width="15.191" height="30" style="fill:white;"/>
                </g>
                <g transform="matrix(2.21653,0,0,2.21653,-173.315,-265.363)">
                    <circle cx="157.595" cy="232.595" r="17.595" style="fill:white;"/>
                </g>
                <g transform="matrix(0.853409,0,0,0.852492,118.285,97.2143)">
                    <circle cx="157.595" cy="232.595" r="17.595" style="fill:white;"/>
                </g>
                <g transform="matrix(0.878634,0,0,0.87769,113.071,-0.203421)">
                    <circle cx="157.595" cy="232.595" r="17.595" style="fill:white;"/>
                </g>
            </g>
        </g>
    </g>
    <g transform="matrix(1,0,0,1.06081,-79.5781,-107.554)">
        <path d="M130,190L130,440" style="fill:none;stroke:rgb(128,128,128);stroke-width:0.97px;"/>
    </g>
    <g transform="matrix(1,0,0,0.625,-124.578,-33.5)">
        <path d="M180,228C180,223.585 177.76,220 175,220C172.24,220 170,223.585 170,228L170,252C170,256.415 172.24,260 175,260C177.76,260 180,256.415 180,252L180,228Z" style="fill:rgb(153,153,153);stroke:rgb(128,128,128);stroke-width:1.2px;"/>
    </g>
    <g transform="matrix(1,0,0,0.625,-124.578,186.5)">
        <path d="M180,228C180,223.585 177.76,220 175,220C172.24,220 170,223.585 170,228L170,252C170,256.415 172.24,260 175,260C177.76,260 180,256.415 180,252L180,228Z" style="fill:rgb(153,153,153);stroke:rgb(128,128,128);stroke-width:1.2px;"/>
    </g>
    <g transform="matrix(1,0,0,1.06081,90.4219,-107.554)">
        <path d="M130,190L130,440" style="fill:none;stroke:rgb(128,128,128);stroke-width:0.97px;"/>
    </g>
    <g transform="matrix(1,0,0,0.75,45.4219,-56)">
        <path d="M180,226.667C180,222.987 177.76,220 175,220C172.24,220 170,222.987 170,226.667L170,253.333C170,257.013 172.24,260 175,260C177.76,260 180,257.013 180,253.333L180,226.667Z" style="fill:rgb(153,153,153);stroke:rgb(128,128,128);stroke-width:1.13px;"/>
    </g>
    <g transform="matrix(1,0,0,1.125,45.4219,-98.5)">
        <path d="M180,224.444C180,221.991 177.76,220 175,220C172.24,220 170,221.991 170,224.444L170,255.556C170,258.009 172.24,260 175,260C177.76,260 180,258.009 180,255.556L180,224.444Z" style="fill:rgb(153,153,153);stroke:rgb(128,128,128);stroke-width:0.94px;"/>
    </g>
    <g transform="matrix(1,0,0,1.14387,45.4219,-37.6518)">
        <path d="M180,224.371C180,221.959 177.76,220 175,220C172.24,220 170,221.959 170,224.371L170,255.629C170,258.041 172.24,260 175,260C177.76,260 180,258.041 180,255.629L180,224.371Z" style="fill:rgb(153,153,153);stroke:rgb(128,128,128);stroke-width:0.93px;"/>
    </g>
    <g transform="matrix(1,0,0,1.39467,45.4219,-18.6144)">
        <path d="M180,223.585C180,221.606 177.76,220 175,220C172.24,220 170,221.606 170,223.585L170,256.415C170,258.394 172.24,260 175,260C177.76,260 180,258.394 180,256.415L180,223.585Z" style="fill:rgb(153,153,153);stroke:rgb(128,128,128);stroke-width:0.82px;"/>
    </g>
    <g transform="matrix(0.355444,0,0,0.377058,334.214,22.3589)">
        <path d="M130,190L130,440" style="fill:none;stroke:rgb(128,128,128);stroke-width:2.73px;"/>
    </g>
    <g transform="matrix(1,0,0,1,205.422,-96)">
        <path d="M180,225C180,222.24 177.76,220 175,220C172.24,220 170,222.24 170,225L170,255C170,257.76 172.24,260 175,260C177.76,260 180,257.76 180,255L180,225Z" style="fill:rgb(153,153,153);stroke:rgb(128,128,128);stroke-width:1px;"/>
    </g>
    <g transform="matrix(0.622986,0,0,0.660869,389.434,-31.5651)">
        <path d="M130,190L130,440" style="fill:none;stroke:rgb(128,128,128);stroke-width:1.56px;"/>
    </g>
    <g transform="matrix(1,0,0,1,295.422,-37.25)">
        <path d="M180,225C180,222.24 177.76,220 175,220C172.24,220 170,222.24 170,225L170,255C170,257.76 172.24,260 175,260C177.76,260 180,257.76 180,255L180,225Z" style="fill:rgb(153,153,153);stroke:rgb(128,128,128);stroke-width:1px;"/>
    </g>
    <g transform="matrix(1,0,0,1.06081,430.422,-107.554)">
        <path d="M130,190L130,440" style="fill:none;stroke:rgb(128,128,128);stroke-width:0.97px;"/>
    </g>
    <g transform="matrix(1,0,0,1,385.422,34)">
        <path d="M180,225C180,222.24 177.76,220 175,220C172.24,220 170,222.24 170,225L170,255C170,257.76 172.24,260 175,260C177.76,260 180,257.76 180,255L180,225Z" style="fill:rgb(153,153,153);stroke:rgb(128,128,128);stroke-width:1px;"/>
    </g>
    <g transform="matrix(0.99991,-0.0134077,0.0134077,0.99991,-84.1093,-81.8801)">
        <g transform="matrix(0.99991,0.0134077,-0.0134077,0.99991,83.004,83.0004)">
            <path d="M553.526,267.971L554.954,269.54L553.385,270.968" style="fill:none;stroke:rgb(128,128,128);stroke-width:1px;stroke-linejoin:miter;stroke-miterlimit:10;"/>
            <path d="M225.422,254C225.422,254 538.104,268.746 554.954,269.54" style="fill:none;stroke:rgb(128,128,128);stroke-width:1px;"/>
        </g>
    </g>
    <g transform="matrix(0.994211,-0.107448,0.107448,0.994211,-114.345,-9.25997)">
        <g transform="matrix(0.994211,0.107448,-0.107448,0.994211,112.688,21.4925)">
            <path d="M227.556,294.398L226.128,295.967L227.697,297.394" style="fill:none;stroke:rgb(128,128,128);stroke-width:1px;stroke-linejoin:miter;stroke-miterlimit:10;"/>
            <path d="M226.128,295.967C242.978,295.172 555.66,280.426 555.66,280.426" style="fill:none;stroke:rgb(128,128,128);stroke-width:1px;"/>
        </g>
    </g>
    <g transform="matrix(1,-3.46945e-18,-3.46945e-18,1,-79.5781,-86)">
        <g transform="matrix(1,3.46945e-18,3.46945e-18,1,79.5781,86)">
            <path d="M213.287,119.898L214.716,121.467L213.147,122.895" style="fill:none;stroke:rgb(128,128,128);stroke-width:1px;stroke-linejoin:miter;stroke-miterlimit:10;"/>
            <path d="M55.422,114C55.422,114 203.226,120.928 214.716,121.467" style="fill:none;stroke:rgb(128,128,128);stroke-width:1px;"/>
        </g>
    </g>
    <g transform="matrix(0.995589,-0.0938264,0.0938264,0.995589,-97.7479,151.322)">
        <g transform="matrix(0.995589,0.0938264,-0.0938264,0.995589,111.515,-141.483)">
            <path d="M57.556,336.17L56.128,337.739L57.697,339.167" style="fill:none;stroke:rgb(128,128,128);stroke-width:1px;stroke-linejoin:miter;stroke-miterlimit:10;"/>
            <path d="M56.128,337.739C67.618,337.198 215.42,330.227 215.42,330.227" style="fill:none;stroke:rgb(128,128,128);stroke-width:1px;"/>
        </g>
    </g>
    <g transform="matrix(0.937637,-0.00292326,-0.00292326,0.999863,99.4255,-67.6092)">
        <g transform="matrix(1.06652,0.00311815,0.00311815,1.00015,-105.829,67.3091)">
            <path d="M373.287,137.398L374.716,138.967L373.147,140.395" style="fill:none;stroke:rgb(128,128,128);stroke-width:1px;stroke-linejoin:miter;stroke-miterlimit:10;"/>
            <path d="M225.422,131.969C225.422,131.969 363.616,138.447 374.716,138.967" style="fill:none;stroke:rgb(128,128,128);stroke-width:1px;"/>
        </g>
    </g>
    <g transform="matrix(0.933226,-0.0908855,0.0909032,0.995726,81.2557,-30.907)">
        <g transform="matrix(1.06211,0.0969445,-0.0969634,0.995442,-89.2992,22.8888)">
            <path d="M227.556,154.366L226.128,155.935L227.697,157.363" style="fill:none;stroke:rgb(128,128,128);stroke-width:1px;stroke-linejoin:miter;stroke-miterlimit:10;"/>
            <path d="M226.128,155.935C237.228,155.412 375.42,148.895 375.42,148.895" style="fill:none;stroke:rgb(128,128,128);stroke-width:1px;"/>
        </g>
    </g>
    <g transform="matrix(1,0,0,1,-79.5781,-88.5)">
        <g transform="matrix(1,-0,-0,1,79.5781,88.5)">
            <path d="M213.176,180.058L214.715,181.519L213.255,183.057" style="fill:none;stroke:rgb(128,128,128);stroke-width:1px;stroke-linejoin:miter;stroke-miterlimit:10;"/>
            <path d="M215.422,161.5C215.422,161.5 200.422,160.583 200.422,171.5C200.422,180.985 211.744,181.537 214.715,181.519" style="fill:none;stroke:rgb(128,128,128);stroke-width:1px;"/>
        </g>
    </g>
    <g transform="matrix(1,0,0,1,-79.5781,-23.3798)">
        <g transform="matrix(1,-0,-0,1,79.5781,23.3798)">
            <path d="M213.176,245.179L214.715,246.639L213.255,248.178" style="fill:none;stroke:rgb(128,128,128);stroke-width:1px;stroke-linejoin:miter;stroke-miterlimit:10;"/>
            <path d="M215.422,226.62C215.422,226.62 200.422,225.703 200.422,236.62C200.422,246.105 211.744,246.657 214.715,246.639" style="fill:none;stroke:rgb(128,128,128);stroke-width:1px;"/>
        </g>
    </g>
    <g transform="matrix(1,0,0,1,-79.5781,50.7132)">
        <g transform="matrix(1,-0,-0,1,79.5781,-50.7132)">
            <path d="M213.176,319.272L214.715,320.732L213.255,322.271" style="fill:none;stroke:rgb(128,128,128);stroke-width:1px;stroke-linejoin:miter;stroke-miterlimit:10;"/>
            <path d="M215.422,300.713C215.422,300.713 200.422,299.796 200.422,310.713C200.422,320.198 211.744,320.75 214.715,320.732" style="fill:none;stroke:rgb(128,128,128);stroke-width:1px;"/>
        </g>
    </g>
    <g transform="matrix(0.999837,-0.018035,0.018035,0.999837,-84.4762,-80.4547)">
        <g transform="matrix(0.999837,0.018035,-0.018035,0.999837,83.0115,81.9652)">
            <path d="M463.531,198.067L464.959,199.636L463.39,201.063" style="fill:none;stroke:rgb(128,128,128);stroke-width:1px;stroke-linejoin:miter;stroke-miterlimit:10;"/>
            <path d="M225.422,188.339C225.422,188.339 450.703,198.963 464.959,199.636" style="fill:none;stroke:rgb(128,128,128);stroke-width:1px;"/>
        </g>
    </g>
    <g transform="matrix(0.993703,-0.112048,0.112048,0.993703,-108.397,-18.0978)">
        <g transform="matrix(0.993703,0.112048,-0.112048,0.993703,105.686,30.1295)">
            <path d="M227.556,218.737L226.128,220.306L227.697,221.734" style="fill:none;stroke:rgb(128,128,128);stroke-width:1px;stroke-linejoin:miter;stroke-miterlimit:10;"/>
            <path d="M226.128,220.306C240.384,219.634 465.665,209.01 465.665,209.01" style="fill:none;stroke:rgb(128,128,128);stroke-width:1px;"/>
        </g>
    </g>
    <g transform="matrix(1,0,0,1,-89.0187,-75.2655)">
        <text x="108.62px" y="101.09px" style="font-family:'ArialMT', 'Arial', sans-serif;font-size:8px;fill:rgb(128,128,128);">Client <tspan x="130.855px 136.191px " y="101.09px 101.09px ">Ap</tspan>plication</text>
    </g>
    <g transform="matrix(1,0,0,1,86.9852,-75.2655)">
        <text x="108.62px" y="101.09px" style="font-family:'ArialMT', 'Arial', sans-serif;font-size:8px;fill:rgb(128,128,128);">Proxy Service</text>
    </g>
    <g transform="matrix(1,0,0,1,49.4501,72.9103)">
        <text x="108.62px" y="101.09px" style="font-family:'ArialMT', 'Arial', sans-serif;font-size:8px;fill:rgb(128,128,128);">processing</text>
    </g>
    <g transform="matrix(1,0,0,1,134.354,28.6369)">
        <text x="108.62px" y="101.09px" style="font-family:'ArialMT', 'Arial', sans-serif;font-size:8px;fill:rgb(128,128,128);">request <tspan x="137.085px " y="101.09px ">A</tspan></text>
    </g>
    <g transform="matrix(1,0,0,1,-41.3312,8.73452)">
        <text x="108.62px" y="101.09px" style="font-family:'ArialMT', 'Arial', sans-serif;font-size:8px;fill:rgb(128,128,128);">request from client</text>
    </g>
    <g transform="matrix(1,0,0,1,-40.8429,244.979)">
        <text x="108.62px" y="101.09px" style="font-family:'ArialMT', 'Arial', sans-serif;font-size:8px;fill:rgb(128,128,128);">response to client</text>
    </g>
    <g transform="matrix(1,0,0,1,221.282,58.6369)">
        <text x="108.62px" y="101.09px" style="font-family:'ArialMT', 'Arial', sans-serif;font-size:8px;fill:rgb(128,128,128);">response <tspan x="143.312px " y="101.09px ">A</tspan></text>
    </g>
    <g transform="matrix(1,0,0,1,311.282,118.637)">
        <text x="108.62px" y="101.09px" style="font-family:'ArialMT', 'Arial', sans-serif;font-size:8px;fill:rgb(128,128,128);">response B</text>
    </g>
    <g transform="matrix(1,0,0,1,401.522,188.637)">
        <text x="108.62px" y="101.09px" style="font-family:'ArialMT', 'Arial', sans-serif;font-size:8px;fill:rgb(128,128,128);">response C</text>
    </g>
    <g transform="matrix(1,0,0,1,134.362,84.9787)">
        <text x="108.62px" y="101.09px" style="font-family:'ArialMT', 'Arial', sans-serif;font-size:8px;fill:rgb(128,128,128);">request B</text>
    </g>
    <g transform="matrix(1,0,0,1,134.362,151.276)">
        <text x="108.62px" y="101.09px" style="font-family:'ArialMT', 'Arial', sans-serif;font-size:8px;fill:rgb(128,128,128);">request C</text>
    </g>
    <g transform="matrix(1,0,0,1,49.4501,138.637)">
        <text x="108.62px" y="101.09px" style="font-family:'ArialMT', 'Arial', sans-serif;font-size:8px;fill:rgb(128,128,128);">processing</text>
    </g>
    <g transform="matrix(1,0,0,1,49.4501,211.227)">
        <text x="108.62px" y="101.09px" style="font-family:'ArialMT', 'Arial', sans-serif;font-size:8px;fill:rgb(128,128,128);">processing</text>
    </g>
    <g transform="matrix(1,0,0,1,237.817,-75.2655)">
        <text x="108.62px" y="101.09px" style="font-family:'ArialMT', 'Arial', sans-serif;font-size:8px;fill:rgb(128,128,128);">Service Endpoint <tspan x="170.882px " y="101.09px ">A</tspan></text>
    </g>
    <g transform="matrix(1,0,0,1,327.817,-75.2655)">
        <text x="108.62px" y="101.09px" style="font-family:'ArialMT', 'Arial', sans-serif;font-size:8px;fill:rgb(128,128,128);">Service Endpoint B</text>
    </g>
    <g transform="matrix(1,0,0,1,417.815,-75.2655)">
        <text x="108.62px" y="101.09px" style="font-family:'ArialMT', 'Arial', sans-serif;font-size:8px;fill:rgb(128,128,128);">Service Endpoint C</text>
    </g>
</svg>
